<svg width="16" height="16" viewBox="0 0 16 16" fill="none" xmlns="http://www.w3.org/2000/svg">
    <path fill-rule="evenodd" clip-rule="evenodd"
        d="M8.8 12.8C9.22435 12.8 9.63131 12.9686 9.93137 13.2686C10.2314 13.5687 10.4 13.9757 10.4 14.4C10.4 14.8243 10.2314 15.2313 9.93137 15.5314C9.63131 15.8314 9.22435 16 8.8 16C8.37565 16 7.96869 15.8314 7.66863 15.5314C7.36857 15.2313 7.2 14.8243 7.2 14.4C7.2 13.9757 7.36857 13.5687 7.66863 13.2686C7.96869 12.9686 8.37565 12.8 8.8 12.8ZM3.7928 10.4C4.32323 10.4 4.83194 10.6107 5.20701 10.9858C5.58209 11.3609 5.7928 11.8696 5.7928 12.4C5.7928 12.9304 5.58209 13.4391 5.20701 13.8142C4.83194 14.1893 4.32323 14.4 3.7928 14.4C3.26237 14.4 2.75366 14.1893 2.37859 13.8142C2.00351 13.4391 1.7928 12.9304 1.7928 12.4C1.7928 11.8696 2.00351 11.3609 2.37859 10.9858C2.75366 10.6107 3.26237 10.4 3.7928 10.4ZM13.0552 10.8C13.4795 10.8 13.8865 10.9686 14.1866 11.2686C14.4866 11.5687 14.6552 11.9757 14.6552 12.4C14.6552 12.8243 14.4866 13.2313 14.1866 13.5314C13.8865 13.8314 13.4795 14 13.0552 14C12.6309 14 12.2239 13.8314 11.9238 13.5314C11.6238 13.2313 11.4552 12.8243 11.4552 12.4C11.4552 11.9757 11.6238 11.5687 11.9238 11.2686C12.2239 10.9686 12.6309 10.8 13.0552 10.8ZM14.8 7.4552C15.1183 7.4552 15.4235 7.58163 15.6485 7.80667C15.8736 8.03172 16 8.33694 16 8.6552C16 8.97346 15.8736 9.27868 15.6485 9.50373C15.4235 9.72877 15.1183 9.8552 14.8 9.8552C14.4817 9.8552 14.1765 9.72877 13.9515 9.50373C13.7264 9.27868 13.6 8.97346 13.6 8.6552C13.6 8.33694 13.7264 8.03172 13.9515 7.80667C14.1765 7.58163 14.4817 7.4552 14.8 7.4552ZM2 4.8C2.53043 4.8 3.03914 5.01071 3.41421 5.38579C3.78929 5.76086 4 6.26957 4 6.8C4 7.33043 3.78929 7.83914 3.41421 8.21421C3.03914 8.58929 2.53043 8.8 2 8.8C1.46957 8.8 0.960859 8.58929 0.585786 8.21421C0.210714 7.83914 0 7.33043 0 6.8C0 6.26957 0.210714 5.76086 0.585786 5.38579C0.960859 5.01071 1.46957 4.8 2 4.8ZM14.2288 4.1656C14.441 4.1656 14.6445 4.24989 14.7945 4.39991C14.9445 4.54994 15.0288 4.75343 15.0288 4.9656C15.0288 5.17777 14.9445 5.38126 14.7945 5.53129C14.6445 5.68131 14.441 5.7656 14.2288 5.7656C14.0166 5.7656 13.8131 5.68131 13.6631 5.53129C13.5131 5.38126 13.4288 5.17777 13.4288 4.9656C13.4288 4.75343 13.5131 4.54994 13.6631 4.39991C13.8131 4.24989 14.0166 4.1656 14.2288 4.1656ZM6.4 0C7.03652 0 7.64697 0.252856 8.09706 0.702944C8.54714 1.15303 8.8 1.76348 8.8 2.4C8.8 3.03652 8.54714 3.64697 8.09706 4.09706C7.64697 4.54714 7.03652 4.8 6.4 4.8C5.76348 4.8 5.15303 4.54714 4.70294 4.09706C4.25286 3.64697 4 3.03652 4 2.4C4 1.76348 4.25286 1.15303 4.70294 0.702944C5.15303 0.252856 5.76348 0 6.4 0V0ZM12.4 2.4C12.5061 2.4 12.6078 2.44214 12.6828 2.51716C12.7579 2.59217 12.8 2.69391 12.8 2.8C12.8 2.90609 12.7579 3.00783 12.6828 3.08284C12.6078 3.15786 12.5061 3.2 12.4 3.2C12.2939 3.2 12.1922 3.15786 12.1172 3.08284C12.0421 3.00783 12 2.90609 12 2.8C12 2.69391 12.0421 2.59217 12.1172 2.51716C12.1922 2.44214 12.2939 2.4 12.4 2.4Z"
        fill="black" />
</svg>