<svg width="24" height="26" viewBox="0 0 24 26" fill="none" xmlns="http://www.w3.org/2000/svg">
    <path
        d="M7 23.0097C6.45 23.0097 5.97933 22.8064 5.588 22.4C5.196 21.9928 5 21.5036 5 20.9323C5 20.361 5.196 19.8718 5.588 19.4647C5.97933 19.0582 6.45 18.855 7 18.855C7.55 18.855 8.02067 19.0582 8.412 19.4647C8.804 19.8718 9 20.361 9 20.9323C9 21.5036 8.804 21.9928 8.412 22.4C8.02067 22.8064 7.55 23.0097 7 23.0097ZM17 23.0097C16.45 23.0097 15.9793 22.8064 15.588 22.4C15.196 21.9928 15 21.5036 15 20.9323C15 20.361 15.196 19.8718 15.588 19.4647C15.9793 19.0582 16.45 18.855 17 18.855C17.55 18.855 18.021 19.0582 18.413 19.4647C18.8043 19.8718 19 20.361 19 20.9323C19 21.5036 18.8043 21.9928 18.413 22.4C18.021 22.8064 17.55 23.0097 17 23.0097ZM6.15 6.3908L8.55 11.5842H15.55L18.3 6.3908H6.15ZM7 17.8163C6.25 17.8163 5.68333 17.4742 5.3 16.7901C4.91667 16.1066 4.9 15.4273 5.25 14.7522L6.6 12.2074L3 4.31344H1.975C1.69167 4.31344 1.45833 4.21373 1.275 4.0143C1.09167 3.81557 1 3.56906 1 3.27476C1 2.98047 1.096 2.73361 1.288 2.53419C1.47933 2.33545 1.71667 2.23608 2 2.23608H3.625C3.80833 2.23608 3.98333 2.28802 4.15 2.39189C4.31667 2.49575 4.44167 2.6429 4.525 2.83332L5.2 4.31344H19.95C20.4 4.31344 20.7083 4.48656 20.875 4.83278C21.0417 5.17901 21.0333 5.54255 20.85 5.9234L17.3 12.5709C17.1167 12.9172 16.875 13.1855 16.575 13.3759C16.275 13.5663 15.9333 13.6616 15.55 13.6616H8.1L7 15.7389H18.025C18.3083 15.7389 18.5417 15.8383 18.725 16.037C18.9083 16.2364 19 16.4833 19 16.7776C19 17.0719 18.904 17.3184 18.712 17.5171C18.5207 17.7166 18.2833 17.8163 18 17.8163H7ZM8.55 11.5842H15.55H8.55Z"
        fill="white" />
</svg>