<svg width="34" height="24" viewBox="0 0 34 24" fill="none" xmlns="http://www.w3.org/2000/svg">
    <path opacity="0.3"
        d="M3.6665 13.6667V15.3333H10.3332V10.3333H6.99984C5.1665 10.3333 3.6665 11.8333 3.6665 13.6667Z"
        fill="black" />
    <path
        d="M28.6668 3.66668C28.6668 1.83334 27.1668 0.333344 25.3335 0.333344H20.3335V3.66668H25.3335V8.08334L19.5335 15.3333H13.6668V7.00001H7.00016C3.31683 7.00001 0.333496 9.98334 0.333496 13.6667V18.6667H3.66683C3.66683 21.4333 5.90016 23.6667 8.66683 23.6667C11.4335 23.6667 13.6668 21.4333 13.6668 18.6667H21.1335L28.6668 9.25001V3.66668ZM8.66683 20.3333C7.75016 20.3333 7.00016 19.5833 7.00016 18.6667H10.3335C10.3335 19.5833 9.5835 20.3333 8.66683 20.3333ZM10.3335 15.3333H3.66683V13.6667C3.66683 11.8333 5.16683 10.3333 7.00016 10.3333H10.3335V15.3333Z"
        fill="black" />
    <path
        d="M5.3335 2H13.6668V5.33333H5.3335V2ZM28.6668 13.6667C25.9002 13.6667 23.6668 15.9 23.6668 18.6667C23.6668 21.4333 25.9002 23.6667 28.6668 23.6667C31.4335 23.6667 33.6668 21.4333 33.6668 18.6667C33.6668 15.9 31.4335 13.6667 28.6668 13.6667ZM28.6668 20.3333C27.7502 20.3333 27.0002 19.5833 27.0002 18.6667C27.0002 17.75 27.7502 17 28.6668 17C29.5835 17 30.3335 17.75 30.3335 18.6667C30.3335 19.5833 29.5835 20.3333 28.6668 20.3333Z"
        fill="black" />
</svg>