<svg width="25" height="25" viewBox="0 0 25 25" fill="none" xmlns="http://www.w3.org/2000/svg">
    <path
        d="M12.5 0C5.59896 0 0 5.59896 0 12.5C0 19.4062 5.59896 25 12.5 25C19.4062 25 25 19.4062 25 12.5C25 5.59375 19.4062 0 12.5 0ZM12.5 3.125C17.6771 3.125 21.875 7.32292 21.875 12.5C21.875 17.6771 17.6771 21.875 12.5 21.875C7.32292 21.875 3.125 17.6771 3.125 12.5C3.125 7.32292 7.32292 3.125 12.5 3.125ZM17.2552 6.46875C16.9167 6.46875 16.6042 6.59375 16.3802 6.89583C13.6719 10.5469 12.7865 11.9219 10.8594 15.7396C10.4219 15.1615 7.44271 11.9688 5.96875 10.8385C5.22917 10.2708 3.81771 12.2552 4.32292 12.7708C6.59375 15.1094 10.6302 20.3125 11.2865 20.2604C12.401 20.1719 15.1979 13.1354 19.0365 8.08854C19.4531 7.54688 18.2552 6.45833 17.2552 6.46875Z"
        fill="black" />
</svg>